<?xml version="1.0" encoding="iso-8859-1"?>
<!-- Uploaded to: SVG Repo, www.svgrepo.com, Generator: SVG Repo Mixer Tools -->
<svg fill="#000000" version="1.1" id="Layer_1" xmlns="http://www.w3.org/2000/svg" xmlns:xlink="http://www.w3.org/1999/xlink" 
	 viewBox="0 0 496 496" xml:space="preserve">
<g>
	<g>
		<g>
			<path d="M457.872,104H416V80c0-13.232-10.768-24-24-24s-24,10.768-24,24v24H128V80c0-13.232-10.768-24-24-24S80,66.768,80,80v24
				H38.128C17.104,104,0,121.104,0,142.128c0,1.584,0.104,3.168,0.296,4.728L8.936,216H80v208H40v16h416v-16h-40V216h71.064
				l8.64-69.136c0.192-1.568,0.296-3.152,0.296-4.736C496,121.104,478.896,104,457.872,104z M384,80c0-4.416,3.584-8,8-8
				c4.416,0,8,3.584,8,8v24h-16V80z M422.864,120c-3.576,13.768-15.992,24-30.864,24s-27.288-10.232-30.864-24H422.864z M96,80
				c0-4.416,3.584-8,8-8s8,3.584,8,8v24H96V80z M134.864,120c-3.576,13.768-15.992,24-30.864,24s-27.288-10.232-30.864-24H134.864z
				 M400,424H96V216h304V424z M479.832,144.864L472.936,200H23.064l-6.888-55.152c-0.12-0.896-0.176-1.808-0.176-2.72
				C16,129.92,25.92,120,38.128,120H56.72c3.824,22.664,23.536,40,47.28,40s43.448-17.336,47.28-40h193.44
				c3.824,22.664,23.536,40,47.28,40c23.744,0,43.448-17.336,47.28-40h18.6c12.2,0,22.12,9.92,22.12,22.128
				C480,143.04,479.944,143.952,479.832,144.864z"/>
			<rect x="240" y="152" width="16" height="16"/>
			<rect x="272" y="152" width="16" height="16"/>
			<rect x="208" y="152" width="16" height="16"/>
		</g>
	</g>
</g>
</svg>