<svg width="20" height="20" viewBox="0 0 20 20" fill="none" xmlns="http://www.w3.org/2000/svg">
    <path d="M12.0579 3.30783L5.80795 9.55783C5.74981 9.61588 5.70376 9.68481 5.67233 9.76068C5.64091 9.83656 5.62473 9.91788 5.62473 10C5.62473 10.0822 5.64091 10.1635 5.67233 10.2394C5.70376 10.3152 5.74981 10.3842 5.80795 10.4422L12.0579 16.6922C12.1752 16.8095 12.3343 16.8754 12.5001 16.8754C12.666 16.8754 12.8251 16.8095 12.9423 16.6922C13.0596 16.5749 13.1255 16.4159 13.1255 16.25C13.1255 16.0842 13.0596 15.9251 12.9423 15.8078L7.13365 10L12.9423 4.19221C13.0004 4.13414 13.0465 4.0652 13.0779 3.98933C13.1093 3.91346 13.1255 3.83214 13.1255 3.75002C13.1255 3.6679 13.1093 3.58658 13.0779 3.51071C13.0465 3.43484 13.0004 3.3659 12.9423 3.30783C12.8843 3.24976 12.8153 3.2037 12.7394 3.17227C12.6636 3.14085 12.5823 3.12467 12.5001 3.12467C12.418 3.12467 12.3367 3.14085 12.2608 3.17227C12.1849 3.2037 12.116 3.24976 12.0579 3.30783Z" fill="#1C1C1C"/>
</svg>
